Coordinates
version=1
nRows=22
nColumns=24
inDegrees=yes

Units are S.I. units (second, meters, Newtons, ...)
Angles are in degrees.

endheader
time	pelvis_tilt	pelvis_list	pelvis_rotation	pelvis_tx	pelvis_ty	pelvis_tz	hip_flexion_r	hip_adduction_r	hip_rotation_r	knee_angle_r	ankle_angle_r	subtalar_angle_r	mtp_angle_r	hip_flexion_l	hip_adduction_l	hip_rotation_l	knee_angle_l	ankle_angle_l	subtalar_angle_l	mtp_angle_l	lumbar_extension	lumbar_bending	lumbar_rotation
      1.37033333	     -2.58668547	    -10.24404141	    -15.09212625	      0.87171342	      0.96008118	      0.36913440	    -19.51418819	      7.09705538	      6.30772774	    -11.63929014	      8.58167069	     -4.41616028	      4.73697418	     32.81707076	    -18.55692042	    -11.94519300	     -4.88993277	      4.78257209	     -7.27210378	     -5.73868732	    -10.48520065	      8.52987162	      9.92300955
      1.37450000	     -2.40511043	    -10.13357729	    -15.47038546	      0.87845288	      0.96001063	      0.36934942	    -19.86480526	      6.66201218	      6.44528671	    -11.97243258	      8.23226684	     -4.24660831	      5.70253302	     32.23060944	    -18.58006061	    -12.30729226	     -5.21690661	      4.67197943	     -7.40888564	     -5.51170297	    -10.66668307	      8.20797920	     10.46622844
      1.37866667	     -2.30868113	    -10.01045544	    -15.71257097	      0.88540862	      0.95974987	      0.36929481	    -20.13434902	      6.27372163	      6.41977528	    -12.26008693	      7.67536924	     -4.26123953	     12.36690411	     31.77283282	    -18.50890764	    -12.54638389	     -5.49431520	      4.42875147	     -7.53067137	     -3.78997683	    -10.69433630	      7.95229400	     10.42556421
      1.38283333	     -2.46199045	     -9.92105048	    -15.91380239	      0.89235884	      0.95903386	      0.36904829	    -20.10808767	      6.01001741	      6.34411747	    -12.65781769	      7.23264979	     -4.13308990	     12.41898041	     31.65463517	    -18.46992078	    -12.57394047	     -5.83715923	      4.17759062	     -7.78214045	     -3.76562396	    -10.44188491	      7.83067931	     10.64162254
      1.38700000	     -2.46232441	     -9.80650428	    -16.12724360	      0.89929516	      0.95864484	      0.36879954	    -20.20728464	      5.66464067	      6.26642938	    -13.08350729	      6.77540931	     -3.94878710	     12.60638398	     31.32087246	    -18.37838135	    -12.71681204	     -6.09026921	      3.83544965	     -8.06308678	     -3.68077820	    -10.36822153	      7.63424520	     10.84208367
      1.39116667	     -2.50953741	     -9.64998529	    -16.29903151	      0.90635394	      0.95821500	      0.36853856	    -20.24241967	      5.31644371	      6.16139141	    -13.51414009	      6.23925034	     -3.93035905	     12.72752671	     31.04954081	    -18.23353892	    -12.89962265	     -6.31448214	      3.41726098	     -8.26552624	     -3.62573456	    -10.19825044	      7.40859487	     10.89056999
      1.39533333	     -2.40042952	     -9.45883559	    -16.46122492	      0.91335896	      0.95811980	      0.36815103	    -20.38808210	      4.87130607	      5.99825693	    -13.98967325	      5.72047324	     -3.72737632	     13.05750734	     30.56022024	    -17.99743940	    -13.11635001	     -6.40780018	      2.80218397	     -8.64550343	     -3.46434471	    -10.21733975	      7.10481143	     11.06101967
      1.39950000	     -2.41228316	     -9.23492486	    -16.59057491	      0.92049238	      0.95784622	      0.36780988	    -20.39222410	      4.46359923	      5.82664926	    -14.49169596	      5.11878406	     -3.76544077	     13.30028311	     30.24736701	    -17.74788536	    -13.34686375	     -6.54120425	      2.20574596	     -8.87370171	     -3.34690594	    -10.05059444	      6.79152333	     11.07049406
      1.40366667	     -2.28215796	     -8.99470055	    -16.66657904	      0.92754822	      0.95784606	      0.36726274	    -20.50076887	      3.99628827	      5.57911781	    -15.02886066	      4.51733118	     -3.59112624	     13.81451094	     29.78179063	    -17.40702193	    -13.53560262	     -6.59930199	      1.40846070	     -9.29560783	     -3.08771657	    -10.07335212	      6.42221625	     11.14944957
      1.40783333	     -2.21025939	     -8.71947608	    -16.70699704	      0.93467207	      0.95778866	      0.36668122	    -20.51446569	      3.53545045	      5.29450466	    -15.61588083	      3.86824330	     -3.55435864	     14.47491417	     29.41147600	    -17.02873095	    -13.72126789	     -6.66074031	      0.55662301	     -9.69734153	     -2.74114059	     -9.99622859	      6.04372048	     11.11529371
      1.41200000	     -2.25259453	     -8.42895147	    -16.71672395	      0.94182947	      0.95758250	      0.36615717	    -20.38598725	      3.13054524	      5.01823961	    -16.24644465	      3.12913982	     -3.74422285	     14.76389744	     29.22944390	    -16.66936459	    -13.91785361	     -6.81139321	     -0.19644204	     -9.88162896	     -2.58485286	     -9.76624123	      5.68622090	     11.04568446
      1.41616667	     -2.10074899	     -8.09844415	    -16.64212382	      0.94893708	      0.95772123	      0.36526771	    -20.40411675	      2.61767952	      4.57577412	    -16.92486688	      2.44972473	     -3.59730881	     15.47373412	     28.82803344	    -16.14894166	    -13.97748596	     -6.83087911	     -1.26028012	    -10.44735045	     -2.19761969	     -9.76813433	      5.25040116	     10.95967345
      1.42033333	     -2.07942277	     -7.77207125	    -16.48896337	      0.95613052	      0.95765045	      0.36438832	    -20.29051501	      2.20150613	      4.10219609	    -17.60005873	      1.58355103	     -3.81838330	     22.91413512	     28.68780323	    -15.66289459	    -14.04661305	     -7.04188817	     -2.18517273	    -10.80724671	      1.98170362	     -9.60038956	      4.85318147	     10.75318319
      1.42450000	     -2.03359222	     -7.39789797	    -16.40122508	      0.96322051	      0.95774130	      0.36362253	    -20.12502691	      1.71905873	      3.70449245	    -18.39962065	      0.81009361	     -3.92691722	     22.94948233	     28.49263897	    -15.16024859	    -14.18064814	     -7.20917379	     -3.16634259	    -11.16267023	      2.04190266	     -9.46165682	      4.38702435	     10.62345339
      1.42866667	     -1.96202912	     -7.00372482	    -16.20446790	      0.97035443	      0.95786891	      0.36264205	    -19.97005185	      1.24091978	      3.19018148	    -19.21764345	     -0.04115295	     -4.06980023	     23.05298325	     28.34249433	    -14.58226455	    -14.19452813	     -7.44550919	     -4.10015414	    -11.57841951	      2.14070626	     -9.34611401	      3.90434356	     10.39662091
      1.43283333	     -1.90115785	     -6.58970636	    -15.95447564	      0.97748774	      0.95800608	      0.36156783	    -19.77218175	      0.76584960	      2.62746048	    -20.08821611	     -0.92522280	     -4.24958681	     23.22143857	     28.25912415	    -13.97248087	    -14.15190842	     -7.76069192	     -4.98656620	    -11.98536959	      2.26729590	     -9.21134862	      3.40920694	     10.12333926
      1.43700000	     -1.85401795	     -6.16755716	    -15.66526904	      0.98458970	      0.95816382	      0.36044750	    -19.52868159	      0.30505642	      2.04006237	    -21.01327560	     -1.85164078	     -4.48645558	     23.44912836	     28.23760695	    -13.35477419	    -14.08013220	     -8.15438858	     -5.80023272	    -12.32541346	      2.41834535	     -9.06879807	      2.91051813	      9.80843931
      1.44116667	     -1.81331338	     -5.72935963	    -15.33817941	      0.99168111	      0.95834539	      0.35926518	    -19.24668145	     -0.15745625	      1.42001734	    -21.99221436	     -2.82088224	     -4.75605815	     23.72777739	     28.26496103	    -12.71464504	    -13.96621649	     -8.62146602	     -6.52085101	    -12.65782215	      2.58246981	     -8.91878235	      2.40022332	      9.46996181
      1.44533333	     -1.76981324	     -5.32410318	    -15.08152103	      0.99868949	      0.95864842	      0.35840716	    -18.94198356	     -0.57609383	      0.95733810	    -23.01602382	     -3.86834503	     -5.21471949	     23.78921883	     28.30785985	    -12.19467079	    -14.04362021	     -9.22726175	     -6.98926848	    -12.59108048	      2.61968589	     -8.78500463	      1.87078631	      9.36327097
      1.44950000	     -1.72467662	     -4.82474469	    -14.57444780	      1.00582876	      0.95882087	      0.35671897	    -18.60695927	     -1.08227973	      0.09260550	    -24.09844207	     -4.87931219	     -5.42026668	     24.20174979	     28.41150545	    -11.38352409	    -13.63449396	     -9.76108575	     -7.64425224	    -13.18772052	      2.82049446	     -8.64255064	      1.35051131	      8.76608593
      1.45366667	     -1.66538249	     -4.39557461	    -14.30565190	      1.01277338	      0.95923391	      0.35586708	    -18.24600027	     -1.52190825	     -0.35844349	    -25.23733974	     -5.97524153	     -5.97707806	     24.26551376	     28.47273052	    -10.85013562	    -13.69966461	    -10.47153486	     -7.93926796	    -13.08011313	      2.85373656	     -8.54308314	      0.79162641	      8.64100115
      1.45783333	     -1.68522945	     -3.91824666	    -13.74590815	      1.01984248	      0.95935728	      0.35410592	    -17.79657268	     -1.97461880	     -1.22152219	    -26.42491794	     -7.04567823	     -6.32069981	     24.70364767	     28.69916726	    -10.06972227	    -13.24535111	    -11.15221710	     -8.36817338	    -13.52474755	      3.03558988	     -8.35087100	      0.30942564	      8.00589716
